<svg xmlns="http://www.w3.org/2000/svg" width="21.83" height="19.643" viewBox="0 0 21.83 19.643">
  <defs>
    <style>
      .cls-1 {
        fill: none;
        stroke: #707070;
        stroke-width: 2px;
      }
    </style>
  </defs>
  <path id="Path_190" data-name="Path 190" class="cls-1" d="M580.985,403.935a1.164,1.164,0,0,1-.767-.288c-.8-.7-1.573-1.359-2.255-1.94l0,0a41.937,41.937,0,0,1-4.923-4.621,7.38,7.38,0,0,1-1.967-4.831,6.2,6.2,0,0,1,1.573-4.233,5.332,5.332,0,0,1,3.967-1.727,4.988,4.988,0,0,1,3.116,1.076,6.374,6.374,0,0,1,1.26,1.315,6.378,6.378,0,0,1,1.26-1.315,4.988,4.988,0,0,1,3.116-1.076,5.332,5.332,0,0,1,3.966,1.727,6.2,6.2,0,0,1,1.573,4.233,7.38,7.38,0,0,1-1.967,4.831,41.924,41.924,0,0,1-4.923,4.621c-.683.582-1.456,1.241-2.259,1.943A1.165,1.165,0,0,1,580.985,403.935Z" transform="translate(-570.07 -385.292)"/>
</svg>
