<svg xmlns="http://www.w3.org/2000/svg" width="13.034" height="11.596" viewBox="0 0 13.034 11.596">
  <defs>
    <style>
      .cls-1 {
        fill: #404040;
      }
    </style>
  </defs>
  <path id="Path_192" data-name="Path 192" class="cls-1" d="M577.587,397.888a.765.765,0,0,1-.5-.189c-.526-.46-1.034-.893-1.482-1.275l0,0a27.57,27.57,0,0,1-3.236-3.037,4.851,4.851,0,0,1-1.293-3.176,4.074,4.074,0,0,1,1.034-2.782,3.5,3.5,0,0,1,2.607-1.135,3.278,3.278,0,0,1,2.048.707,4.189,4.189,0,0,1,.828.864,4.191,4.191,0,0,1,.828-.864,3.278,3.278,0,0,1,2.048-.707,3.5,3.5,0,0,1,2.607,1.135,4.073,4.073,0,0,1,1.034,2.782,4.851,4.851,0,0,1-1.293,3.176,27.565,27.565,0,0,1-3.236,3.037c-.449.382-.957.816-1.485,1.277A.766.766,0,0,1,577.587,397.888Z" transform="translate(-571.07 -386.292)"/>
</svg>
