<svg xmlns="http://www.w3.org/2000/svg" viewBox="0 0 53.23 47.36"><defs><style>.cls-1{fill:#bcbcbc;}</style></defs><title>geart_fill_white</title><g id="Layer_2" data-name="Layer 2"><g id="Layer_1-2" data-name="Layer 1"><path class="cls-1" d="M26.62,47.36a3.11,3.11,0,0,1-2.06-.77c-2.15-1.88-4.22-3.65-6-5.21h0C13.13,36.8,8.5,32.86,5.28,29,1.68,24.62,0,20.5,0,16A16.67,16.67,0,0,1,4.22,4.63,14.36,14.36,0,0,1,14.87,0a13.4,13.4,0,0,1,8.37,2.89,17,17,0,0,1,3.38,3.53A17,17,0,0,1,30,2.89,13.37,13.37,0,0,1,38.36,0,14.34,14.34,0,0,1,49,4.63,16.62,16.62,0,0,1,53.23,16c0,4.5-1.67,8.62-5.27,13-3.23,3.89-7.86,7.83-13.22,12.4-1.83,1.56-3.91,3.33-6.07,5.22A3.09,3.09,0,0,1,26.62,47.36Z"/></g></g></svg>