<svg xmlns="http://www.w3.org/2000/svg" width="35" height="35" viewBox="0 0 35 35">
  <defs>
    <style>
      .cls-1 {
        fill: #bcbcbc;
      }
    </style>
  </defs>
  <path id="Path_220" data-name="Path 220" class="cls-1" d="M400.948,121.859a17.5,17.5,0,1,0,17.5,17.5A17.5,17.5,0,0,0,400.948,121.859Zm8.561,17.428h-.98v8.884a.908.908,0,0,1-.907.907h-3.767v-6.073h-5.817v6.073h-3.763a.909.909,0,0,1-.911-.907v-8.884h-.976a.768.768,0,0,1-.529-1.326l8.558-8.111a.769.769,0,0,1,1.058,0l8.563,8.111A.768.768,0,0,1,409.509,139.287Z" transform="translate(-383.448 -121.859)"/>
</svg>
