<svg id="Component_5_1" data-name="Component 5 – 1" xmlns="http://www.w3.org/2000/svg" width="35" height="35" viewBox="0 0 35 35">
  <defs>
    <style>
      .cls-1 {
        fill: #bcbcbc;
      }
    </style>
  </defs>
  <path id="Path_211" data-name="Path 211" class="cls-1" d="M100.03,174.36a17.5,17.5,0,1,0,17.5,17.5A17.505,17.505,0,0,0,100.03,174.36Zm1.256,26.823a1.719,1.719,0,0,1-1.293.536,1.823,1.823,0,0,1-1.286-3.115,1.793,1.793,0,0,1,1.286-.522,1.824,1.824,0,0,1,1.293,3.1Zm3.644-11.953a10.254,10.254,0,0,1-2.109,2.446,4.018,4.018,0,0,0-1.572,2.8v1.153H98.737v-1.256a4.177,4.177,0,0,1,.441-1.947,7.828,7.828,0,0,1,1.682-2.006,11.408,11.408,0,0,0,1.682-1.815,2.718,2.718,0,0,0,.441-1.528,2.564,2.564,0,0,0-.8-1.991,3.109,3.109,0,0,0-2.167-.735,3.177,3.177,0,0,0-3.152,2.564l-2.3-.962A6.2,6.2,0,0,1,96.65,183.1,5.434,5.434,0,0,1,100.015,182a5.557,5.557,0,0,1,3.945,1.433,4.771,4.771,0,0,1,1.535,3.644A4.425,4.425,0,0,1,104.93,189.23Z" transform="translate(-82.53 -174.36)"/>
</svg>
