<svg xmlns="http://www.w3.org/2000/svg" width="35" height="35" viewBox="0 0 35 35">
  <defs>
    <style>
      .cls-1 {
        fill: #bcbcbc;
      }
    </style>
  </defs>
  <path id="Path_219" data-name="Path 219" class="cls-1" d="M210.195,105.8v2.107h-1.976V105.8a3.808,3.808,0,0,0,1.976,0Zm-7.806-11.036h-2.044a11.347,11.347,0,0,0,1.733,5.768,5.681,5.681,0,0,0,2.632,2.267c-.169-.279-.334-.577-.49-.891A19.671,19.671,0,0,1,202.389,94.764Zm2.675,15.308v.989h8.286v-.989a.989.989,0,0,0-.989-.987h-6.308A.989.989,0,0,0,205.064,110.072Zm9.856-16.759a19.452,19.452,0,0,1-1.778,8.068,9.356,9.356,0,0,1-1.175,1.833.681.681,0,0,0-.076.087,4.7,4.7,0,0,1-1.332,1.1c-.026.012-.051.025-.076.039a2.749,2.749,0,0,1-2.553,0,.608.608,0,0,0-.078-.04,4.739,4.739,0,0,1-1.33-1.1.679.679,0,0,0-.076-.087,9.356,9.356,0,0,1-1.175-1.833,19.459,19.459,0,0,1-1.778-8.068ZM209.7,95.721h-.781l-1.584.742.379.874.953-.4v4.179H209.7Zm4.493,6.187c-.158.313-.323.611-.492.891a5.681,5.681,0,0,0,2.632-2.267,11.347,11.347,0,0,0,1.733-5.768h-2.044A19.7,19.7,0,0,1,214.2,101.909Zm12.511-.174a17.5,17.5,0,1,1-17.5-17.5A17.5,17.5,0,0,1,226.707,101.735Zm-7.448-7.561a.589.589,0,0,0-.59-.59H216.09q.014-.428.014-.861a.589.589,0,0,0-.588-.59H202.9a.589.589,0,0,0-.588.59q0,.433.014.861h-2.579a.589.589,0,0,0-.59.59,12.766,12.766,0,0,0,1.943,7.011,6.138,6.138,0,0,0,4.668,3.031,5.986,5.986,0,0,0,1.276,1.072v2.618h-.989a2.168,2.168,0,0,0-2.166,2.165v.989h-.042a.589.589,0,0,0,0,1.178H214.57a.589.589,0,1,0,0-1.178h-.042v-.989a2.168,2.168,0,0,0-2.166-2.165h-.989v-2.618a5.986,5.986,0,0,0,1.276-1.072,6.143,6.143,0,0,0,4.67-3.031A12.766,12.766,0,0,0,219.259,94.174Z" transform="translate(-191.707 -84.234)"/>
</svg>
