<svg id="Component_28_1" data-name="Component 28 – 1" xmlns="http://www.w3.org/2000/svg" width="25" height="24.997" viewBox="0 0 25 24.997">
  <path id="Path_231" data-name="Path 231" d="M1521.07,134.76a12.5,12.5,0,1,0,12.5,12.5A12.5,12.5,0,0,0,1521.07,134.76Zm-2.475,7.131h4.95a.728.728,0,0,1,0,1.455h-4.95a.728.728,0,0,1,0-1.455Zm8.228,10.734h-11.506a.728.728,0,0,1,0-1.455h11.506a.728.728,0,0,1,0,1.455Zm0-3.093h-11.506a.728.728,0,0,1,0-1.455h11.506a.728.728,0,0,1,0,1.455Zm0-3.093h-11.506a.728.728,0,0,1,0-1.455h11.506a.728.728,0,0,1,0,1.455Z" transform="translate(-1508.57 -134.76)"/>
</svg>
