<svg xmlns="http://www.w3.org/2000/svg" width="51.077" height="51.031" viewBox="0 0 51.077 51.031">
  <g id="Group_594" data-name="Group 594" transform="translate(-94.9 -267.31)">
    <g id="Group_589" data-name="Group 589" transform="translate(94.9 267.31)">
      <g id="Group_586" data-name="Group 586" transform="translate(0 10.861)">
        <g id="Group_585" data-name="Group 585">
          <path id="Path_213" data-name="Path 213" d="M102.109,279.025l-3.825,6.649a1.832,1.832,0,0,1-1.581.905,1.729,1.729,0,0,1-.893-.253,1.79,1.79,0,0,1-.664-2.462l3.837-6.649a1.806,1.806,0,1,1,3.125,1.81Z" transform="translate(-94.9 -276.31)"/>
        </g>
      </g>
      <g id="Group_587" data-name="Group 587" transform="translate(23.728)">
        <path id="Path_214" data-name="Path 214" d="M118.184,269.12v3.668a1.81,1.81,0,0,1-3.62,0V269.12a1.81,1.81,0,1,1,3.62,0Z" transform="translate(-114.564 -267.31)"/>
      </g>
      <g id="Group_588" data-name="Group 588" transform="translate(23.728 26.125)">
        <path id="Path_215" data-name="Path 215" d="M118.184,290.77v3.668a1.81,1.81,0,0,1-3.62,0V290.77a1.81,1.81,0,0,1,3.62,0Z" transform="translate(-114.564 -288.96)"/>
      </g>
    </g>
    <g id="Group_593" data-name="Group 593" transform="translate(99.177 275.817)">
      <g id="Group_590" data-name="Group 590">
        <path id="Path_216" data-name="Path 216" d="M119.706,274.36a21.262,21.262,0,1,0,21.262,21.262A21.264,21.264,0,0,0,119.706,274.36Zm0,38.361a17.1,17.1,0,1,1,17.1-17.1A17.092,17.092,0,0,1,119.706,312.721Z" transform="translate(-98.444 -274.36)"/>
      </g>
      <g id="Group_592" data-name="Group 592" transform="translate(39.345 2.353)">
        <g id="Group_591" data-name="Group 591">
          <path id="Path_217" data-name="Path 217" d="M137.6,286.325a1.739,1.739,0,0,1-.9.253,1.827,1.827,0,0,1-1.569-.905l-3.825-6.649a1.806,1.806,0,1,1,3.125-1.81l3.837,6.649A1.79,1.79,0,0,1,137.6,286.325Z" transform="translate(-131.05 -276.31)"/>
        </g>
      </g>
    </g>
  </g>
</svg>
