<svg xmlns="http://www.w3.org/2000/svg" width="25" height="25" viewBox="0 0 25 25">
  <g id="Component_31_1" data-name="Component 31 – 1" transform="translate(0 0)">
    <path id="Path_234" data-name="Path 234" d="M1763.011,312.4a12.5,12.5,0,1,0,12.5,12.5A12.5,12.5,0,0,0,1763.011,312.4Zm6.6,14.1c-.127.127-.258.25-.392.37a9.417,9.417,0,0,1-2.288,1.5q-.243.112-.494.21a9.347,9.347,0,0,1-11.315-3.689,9.348,9.348,0,0,1,15.778,0A9.423,9.423,0,0,1,1769.61,326.5Z" transform="translate(-1750.51 -312.4)"/>
    <g id="Group_748" data-name="Group 748" transform="translate(10.071 10.071)">
      <path id="Path_235" data-name="Path 235" d="M1792.94,352.4a2.429,2.429,0,1,0,2.428,2.43A2.43,2.43,0,0,0,1792.94,352.4Zm.868,2.635h-.655v.687h-.427v-.687h-.656v-.416h.656v-.681h.427v.681h.655Z" transform="translate(-1790.51 -352.4)"/>
    </g>
  </g>
</svg>
