<?xml version="1.0" encoding="utf-8"?>
<!-- Generator: Adobe Illustrator 23.0.6, SVG Export Plug-In . SVG Version: 6.00 Build 0)  -->
<svg version="1.1" id="Component_4_1" xmlns="http://www.w3.org/2000/svg" xmlns:xlink="http://www.w3.org/1999/xlink" x="0px"
	 y="0px" viewBox="0 0 35 35" style="enable-background:new 0 0 35 35;" xml:space="preserve">
<path d="M18.5,21.6v2.1h-2v-2.1C17.2,21.7,17.8,21.7,18.5,21.6z"/>
<path d="M13,18.6c-1.1-0.5-2-1.3-2.6-2.3c-1.1-1.7-1.7-3.7-1.7-5.8h2c0.2,2.5,0.8,4.9,1.8,7.1C12.7,18,12.8,18.3,13,18.6z"/>
<path d="M21.6,25.8v1h-8.3v-1c0-0.6,0.4-1,1-1h6.3C21.2,24.8,21.6,25.3,21.6,25.8z"/>
<polygon points="18,11.5 18,16.9 17,16.9 17,12.7 16,13.1 15.6,12.2 17.2,11.5 "/>
<polygon points="18,11.5 18,16.9 17,16.9 17,12.7 16,13.1 15.6,12.2 17.2,11.5 "/>
<path d="M26.4,10.5c0,2-0.6,4-1.7,5.8c-0.6,1-1.5,1.8-2.6,2.3c0.2-0.3,0.3-0.6,0.5-0.9c1-2.2,1.7-4.7,1.8-7.1H26.4z"/>
<path d="M12.5,17.7c0.2,0.3,0.3,0.6,0.5,0.9c-1.1-0.5-2-1.3-2.6-2.3c-1.1-1.7-1.7-3.7-1.7-5.8h2C10.8,13,11.5,15.4,12.5,17.7z"/>
<path d="M18.5,21.6v2.1h-2v-2.1C17.2,21.7,17.8,21.7,18.5,21.6z"/>
<path d="M14.3,24.8h6.3c0.5,0,1,0.4,1,1v1h-8.3v-1C13.4,25.3,13.8,24.8,14.3,24.8z"/>
<polygon points="18,11.5 18,16.9 17,16.9 17,12.7 16,13.1 15.6,12.2 17.2,11.5 "/>
<path d="M24.3,10.5h2c0,2-0.6,4-1.7,5.8c-0.6,1-1.5,1.8-2.6,2.3c0.2-0.3,0.3-0.6,0.5-0.9C23.5,15.4,24.2,13,24.3,10.5z"/>
<path d="M17.5,0C7.8,0,0,7.8,0,17.5S7.8,35,17.5,35C27.2,35,35,27.2,35,17.5C35,7.8,27.2,0,17.5,0z M25.6,17c-1,1.7-2.7,2.8-4.7,3
	c-0.4,0.4-0.8,0.8-1.3,1.1v2.6h1c1.2,0,2.2,1,2.2,2.2v1h0c0.3,0,0.6,0.3,0.6,0.6c0,0.3-0.3,0.6-0.6,0.6H12.1c-0.3,0-0.6-0.3-0.6-0.6
	c0-0.3,0.3-0.6,0.6-0.6h0v-1c0-1.2,1-2.2,2.2-2.2h1V21c-0.5-0.3-0.9-0.6-1.3-1.1c-2-0.2-3.7-1.3-4.7-3c-1.3-2-1.9-4.4-1.9-6.8V9.9
	c0-0.3,0.3-0.6,0.6-0.6h2.6c0-0.3,0-0.6,0-0.9c0-0.3,0.3-0.6,0.6-0.6h12.6c0.3,0,0.6,0.3,0.6,0.6c0,0.3,0,0.6,0,0.9H27
	c0.3,0,0.6,0.3,0.6,0.6C27.6,12.4,26.9,14.8,25.6,17z"/>
<path d="M12.5,17.7c0.2,0.3,0.3,0.6,0.5,0.9c-1.1-0.5-2-1.3-2.6-2.3c-1.1-1.7-1.7-3.7-1.7-5.8h2C10.8,13,11.5,15.4,12.5,17.7z"/>
<path d="M18.5,21.6v2.1h-2v-2.1C17.2,21.7,17.8,21.7,18.5,21.6z"/>
<path d="M21.6,25.8v1h-8.3v-1c0-0.6,0.4-1,1-1h6.3C21.2,24.8,21.6,25.3,21.6,25.8z"/>
<polygon points="18,11.5 18,16.9 17,16.9 17,12.7 16,13.1 15.6,12.2 17.2,11.5 "/>
<path d="M26.4,10.5c0,2-0.6,4-1.7,5.8c-0.6,1-1.5,1.8-2.6,2.3c0.2-0.3,0.3-0.6,0.5-0.9c1-2.2,1.7-4.7,1.8-7.1H26.4z"/>
</svg>
