<svg id="Component_28_1" data-name="Component 28 – 1" xmlns="http://www.w3.org/2000/svg" width="30" height="29.997" viewBox="0 0 30 29.997">
  <defs>
    <style>
      .cls-1 {
        fill: #e2e2e2;
      }
    </style>
  </defs>
  <path id="Path_231" data-name="Path 231" class="cls-1" d="M1523.57,134.76a15,15,0,1,0,15,15A15,15,0,0,0,1523.57,134.76Zm-2.97,8.558h5.94a.873.873,0,0,1,0,1.746h-5.94a.873.873,0,0,1,0-1.746Zm9.873,12.881h-13.807a.873.873,0,0,1,0-1.746h13.807a.873.873,0,0,1,0,1.746Zm0-3.712h-13.807a.873.873,0,0,1,0-1.746h13.807a.873.873,0,0,1,0,1.746Zm0-3.712h-13.807a.873.873,0,0,1,0-1.746h13.807a.873.873,0,0,1,0,1.746Z" transform="translate(-1508.57 -134.76)"/>
</svg>
