<svg xmlns="http://www.w3.org/2000/svg" width="30" height="30.004" viewBox="0 0 30 30.004">
  <defs>
    <style>
      .cls-1 {
        fill: #e2e2e2;
      }
    </style>
  </defs>
  <g id="Component_30_1" data-name="Component 30 – 1" transform="translate(0 0)">
    <path id="Path_232" data-name="Path 232" class="cls-1" d="M1731.474,151.553v.506h-3.854v-.506a.372.372,0,0,1,.371-.373h3.11A.374.374,0,0,1,1731.474,151.553Z" transform="translate(-1714.545 -142.434)"/>
    <path id="Path_233" data-name="Path 233" class="cls-1" d="M1710.982,127.55a15,15,0,1,0,15,15A15,15,0,0,0,1710.982,127.55Zm8.132,19.554a1.8,1.8,0,0,1-1.8,1.8h-12.669a1.8,1.8,0,0,1-1.8-1.8v-4.855a19.92,19.92,0,0,0,7.454,1.626,1,1,0,0,0,1.943,0,20.657,20.657,0,0,0,6.871-1.37Zm0-5.1a20.2,20.2,0,0,1-6.881,1.384,1,1,0,0,0-1.922,0,19.441,19.441,0,0,1-7.465-1.644v-2.235a1.8,1.8,0,0,1,1.8-1.8h1.759v-.944a1.677,1.677,0,0,1,1.673-1.676h5.806a1.68,1.68,0,0,1,1.677,1.676v.944h1.755a1.8,1.8,0,0,1,1.8,1.8Z" transform="translate(-1695.98 -127.55)"/>
  </g>
</svg>
