<svg id="Component_30_1" data-name="Component 30 – 1" xmlns="http://www.w3.org/2000/svg" width="25" height="25.003" viewBox="0 0 25 25.003">
  <path id="Path_232" data-name="Path 232" d="M1731.474,151.553v.506h-3.854v-.506a.372.372,0,0,1,.371-.373h3.11A.374.374,0,0,1,1731.474,151.553Z" transform="translate(-1717.045 -143.936)"/>
  <path id="Path_233" data-name="Path 233" d="M1708.481,127.55a12.5,12.5,0,1,0,12.5,12.5A12.5,12.5,0,0,0,1708.481,127.55Zm6.777,16.3a1.5,1.5,0,0,1-1.5,1.5H1703.2a1.5,1.5,0,0,1-1.5-1.5V139.8a16.6,16.6,0,0,0,6.211,1.355.83.83,0,0,0,1.619,0,17.215,17.215,0,0,0,5.725-1.141Zm0-4.253a16.834,16.834,0,0,1-5.734,1.153.83.83,0,0,0-1.6,0,16.2,16.2,0,0,1-6.22-1.37v-1.862a1.5,1.5,0,0,1,1.5-1.5h1.466v-.787a1.4,1.4,0,0,1,1.394-1.4h4.838a1.4,1.4,0,0,1,1.4,1.4v.787h1.463a1.5,1.5,0,0,1,1.5,1.5Z" transform="translate(-1695.98 -127.55)"/>
</svg>
