<svg xmlns="http://www.w3.org/2000/svg" width="34.79" height="34.79" viewBox="0 0 34.79 34.79">
  <defs>
    <style>
      .cls-1 {
        fill: #bcbcbc;
      }
    </style>
  </defs>
  <path id="Path_229" data-name="Path 229" class="cls-1" d="M1274.993,91.66a17.4,17.4,0,1,0,17.4,17.393A17.392,17.392,0,0,0,1274.993,91.66Zm-.893,5.92a.838.838,0,0,1,.846-.846.846.846,0,0,1,.846.846v1.507a.863.863,0,0,1-.25.6.847.847,0,0,1-1.443-.6Zm-9.124,12.319h-1.507a.859.859,0,0,1-.6-.245.85.85,0,0,1,.6-1.447h1.507a.846.846,0,0,1,0,1.693Zm1.253-9.56a.848.848,0,0,1,1.2,0l1.071,1.071a.844.844,0,0,1,.25.6.849.849,0,0,1-1.447.6l-1.071-1.071a.844.844,0,0,1-.25-.6A.853.853,0,0,1,1266.229,100.34Zm2.268,16.36-1.071,1.071a.839.839,0,0,1-.6.245.844.844,0,0,1-.6-1.443l1.071-1.071a.839.839,0,0,1,.6-.245.844.844,0,0,1,.6,1.443Zm7.3,3.83a.846.846,0,0,1-1.693,0v-1.507a.844.844,0,0,1,.245-.6.859.859,0,0,1,.6-.245.846.846,0,0,1,.846.846Zm-.8-3.944a7.531,7.531,0,1,1,7.533-7.533A7.533,7.533,0,0,1,1274.993,116.586Zm8.667,1.185a.848.848,0,0,1-1.2,0l-1.071-1.071a.839.839,0,0,1-.245-.6.844.844,0,0,1,1.443-.6l1.07,1.071a.839.839,0,0,1,.245.6A.856.856,0,0,1,1283.66,117.771Zm0-16.233-1.07,1.071a.844.844,0,0,1-.6.25.86.86,0,0,1-.6-.25.848.848,0,0,1,0-1.2l1.071-1.071a.843.843,0,0,1,.6-.25.86.86,0,0,1,.6.25A.848.848,0,0,1,1283.66,101.537Zm2.759,8.362h-1.507a.846.846,0,0,1,0-1.693h1.507a.83.83,0,0,1,.6.25.847.847,0,0,1-.6,1.443Z" transform="translate(-1257.6 -91.66)"/>
</svg>
