<svg xmlns="http://www.w3.org/2000/svg" viewBox="0 0 42.33 40.23"><defs><style>.cls-1{fill:#bcbcbc;}</style></defs><title>timer_white</title><g id="Layer_2" data-name="Layer 2"><g id="Layer_1-2" data-name="Layer 1"><path class="cls-1" d="M6,9.19,2.8,14.7a1.52,1.52,0,0,1-1.31.75,1.43,1.43,0,0,1-.74-.21,1.48,1.48,0,0,1-.55-2L3.38,7.69A1.5,1.5,0,1,1,6,9.19Z"/><path class="cls-1" d="M19.66,1c0-.55.67-1,1.5-1s1.5.44,1.5,1V3c0,.55-.67,1-1.5,1s-1.5-.44-1.5-1Z"/><path class="cls-1" d="M22.66,21.09v3a1.5,1.5,0,0,1-3,0v-3a1.5,1.5,0,0,1,3,0Z"/><path class="cls-1" d="M21.16,5A17.62,17.62,0,1,0,38.78,22.61,17.62,17.62,0,0,0,21.16,5Zm0,31.79A14.17,14.17,0,1,1,35.33,22.61,14.16,14.16,0,0,1,21.16,36.78Z"/><path class="cls-1" d="M36.35,9.19a1.5,1.5,0,1,1,2.59-1.5l3.18,5.51a1.48,1.48,0,0,1-.55,2,1.44,1.44,0,0,1-.75.21,1.51,1.51,0,0,1-1.3-.75Z"/></g></g></svg>